<mxfile host="app.diagrams.net" modified="2023-05-09T11:06:17.839Z" agent="Mozilla/5.0 (Windows NT 10.0; Win64; x64) AppleWebKit/537.36 (KHTML, like Gecko) Chrome/113.0.0.0 Safari/537.36 Edg/113.0.1774.35" etag="fOKbXPrdcmKsPGhZGk2P" version="21.2.9" type="github">
  <diagram name="第 1 页" id="EnYxGeEcJGRAx5bpm4rj">
    <mxGraphModel dx="1386" dy="806" grid="1" gridSize="10" guides="1" tooltips="1" connect="1" arrows="1" fold="1" page="1" pageScale="1" pageWidth="827" pageHeight="1169" math="0" shadow="0">
      <root>
        <mxCell id="0" />
        <mxCell id="1" parent="0" />
        <mxCell id="xmEzaSjgnuiluHqUhVqB-7" style="edgeStyle=orthogonalEdgeStyle;rounded=0;orthogonalLoop=1;jettySize=auto;html=1;entryX=0.5;entryY=0;entryDx=0;entryDy=0;" edge="1" parent="1" source="xmEzaSjgnuiluHqUhVqB-1" target="xmEzaSjgnuiluHqUhVqB-3">
          <mxGeometry relative="1" as="geometry" />
        </mxCell>
        <mxCell id="xmEzaSjgnuiluHqUhVqB-8" style="edgeStyle=orthogonalEdgeStyle;rounded=0;orthogonalLoop=1;jettySize=auto;html=1;" edge="1" parent="1" source="xmEzaSjgnuiluHqUhVqB-1" target="xmEzaSjgnuiluHqUhVqB-4">
          <mxGeometry relative="1" as="geometry" />
        </mxCell>
        <mxCell id="xmEzaSjgnuiluHqUhVqB-9" style="edgeStyle=orthogonalEdgeStyle;rounded=0;orthogonalLoop=1;jettySize=auto;html=1;" edge="1" parent="1" source="xmEzaSjgnuiluHqUhVqB-1" target="xmEzaSjgnuiluHqUhVqB-5">
          <mxGeometry relative="1" as="geometry" />
        </mxCell>
        <mxCell id="xmEzaSjgnuiluHqUhVqB-1" value="MQ" style="shape=dataStorage;whiteSpace=wrap;html=1;fixedSize=1;fillColor=#6d8764;fontColor=#ffffff;strokeColor=#3A5431;" vertex="1" parent="1">
          <mxGeometry x="364" y="370" width="100" height="80" as="geometry" />
        </mxCell>
        <mxCell id="xmEzaSjgnuiluHqUhVqB-6" style="edgeStyle=orthogonalEdgeStyle;rounded=0;orthogonalLoop=1;jettySize=auto;html=1;" edge="1" parent="1" source="xmEzaSjgnuiluHqUhVqB-2" target="xmEzaSjgnuiluHqUhVqB-1">
          <mxGeometry relative="1" as="geometry" />
        </mxCell>
        <mxCell id="xmEzaSjgnuiluHqUhVqB-2" value="A服务" style="whiteSpace=wrap;html=1;aspect=fixed;" vertex="1" parent="1">
          <mxGeometry x="374" y="160" width="80" height="80" as="geometry" />
        </mxCell>
        <mxCell id="xmEzaSjgnuiluHqUhVqB-3" value="D服务" style="whiteSpace=wrap;html=1;aspect=fixed;" vertex="1" parent="1">
          <mxGeometry x="150" y="530" width="80" height="80" as="geometry" />
        </mxCell>
        <mxCell id="xmEzaSjgnuiluHqUhVqB-4" value="B服务" style="whiteSpace=wrap;html=1;aspect=fixed;" vertex="1" parent="1">
          <mxGeometry x="374" y="530" width="80" height="80" as="geometry" />
        </mxCell>
        <mxCell id="xmEzaSjgnuiluHqUhVqB-5" value="C服务" style="whiteSpace=wrap;html=1;aspect=fixed;" vertex="1" parent="1">
          <mxGeometry x="590" y="530" width="80" height="80" as="geometry" />
        </mxCell>
      </root>
    </mxGraphModel>
  </diagram>
</mxfile>
